<?xml version="1.0" standalone="no"?>
<!DOCTYPE svg PUBLIC "-//W3C//DTD SVG 20010904//EN"
 "http://www.w3.org/TR/2001/REC-SVG-20010904/DTD/svg10.dtd">
<svg version="1.0" xmlns="http://www.w3.org/2000/svg"
 width="600.000000pt" height="600.000000pt" viewBox="0 0 600.000000 600.000000"
 preserveAspectRatio="xMidYMid meet">
<metadata>
Created by potrace 1.11, written by Peter Selinger 2001-2013
</metadata>
<g transform="translate(0.000000,600.000000) scale(0.100000,-0.100000)"
fill="#000000" stroke="none">
<path d="M5036 5903 c-2 -2 -12 -5 -22 -7 -79 -16 -183 -64 -266 -123 -29 -20
-55 -40 -58 -43 -3 -3 -39 -30 -80 -59 -41 -30 -99 -79 -130 -110 -65 -65
-160 -184 -160 -200 0 -6 -4 -11 -8 -11 -10 0 -82 -118 -134 -220 -13 -25 -26
-46 -30 -48 -5 -2 -8 -12 -8 -23 0 -10 -5 -19 -12 -19 -6 0 -9 -3 -6 -6 3 -3
-11 -42 -31 -87 -59 -127 -178 -478 -195 -572 -3 -13 -7 -28 -10 -33 -3 -5 -8
-22 -10 -38 -6 -29 -8 -39 -25 -106 -5 -21 -7 -38 -4 -38 3 0 0 -7 -7 -15 -7
-8 -10 -15 -7 -15 3 0 1 -18 -4 -40 -5 -22 -12 -56 -15 -76 -3 -20 -8 -45 -10
-55 -9 -43 -12 -56 -18 -102 -4 -27 -9 -57 -11 -67 -6 -32 -15 -90 -20 -133
-3 -23 -7 -52 -9 -64 -3 -12 -8 -53 -11 -90 -4 -37 -9 -77 -11 -88 -2 -11 -7
-56 -10 -100 -5 -71 -2 -90 26 -174 33 -102 74 -190 120 -255 33 -49 122 -137
171 -170 40 -27 144 -76 174 -82 6 -1 12 -3 15 -4 51 -19 280 -23 360 -5 36 8
81 18 100 21 19 3 42 10 51 15 9 4 28 10 42 13 50 9 241 145 312 222 104 113
254 305 255 326 0 3 19 39 43 80 38 64 57 101 62 118 0 3 9 20 18 37 10 18 17
35 17 38 -1 3 6 20 14 38 8 17 27 68 41 112 15 44 29 87 32 95 12 29 33 106
37 135 2 11 4 20 5 20 2 0 4 9 6 20 4 21 16 82 20 100 2 6 5 26 9 45 3 19 8
46 11 60 7 35 12 73 31 245 21 200 21 962 -1 1150 -2 17 -6 51 -9 77 -6 59
-31 118 -49 118 -22 0 -139 -298 -161 -407 -3 -15 -18 -84 -32 -153 -24 -111
-27 -151 -29 -355 l-2 -230 -38 -140 c-21 -77 -38 -146 -38 -152 0 -7 -4 -13
-9 -13 -5 0 -6 -4 -3 -10 3 -5 -1 -23 -10 -40 -8 -16 -15 -33 -15 -37 1 -14
-72 -238 -81 -247 -5 -6 -9 -17 -9 -25 0 -9 -7 -29 -15 -45 -8 -15 -15 -33
-15 -38 0 -6 -6 -24 -14 -41 -8 -18 -27 -61 -42 -97 -46 -112 -163 -341 -184
-360 -3 -3 -11 -17 -19 -32 -8 -15 -22 -37 -33 -47 -10 -11 -18 -23 -18 -26 0
-4 -6 -12 -12 -19 -7 -7 -31 -34 -52 -60 -31 -38 -82 -73 -116 -80 -3 -1 -9
-4 -15 -7 -5 -4 -23 -10 -40 -13 -16 -4 -43 -10 -60 -14 -16 -4 -68 -7 -115
-7 -91 0 -150 20 -202 68 -27 26 -76 105 -83 134 -2 10 -9 34 -15 53 -5 19
-13 71 -16 115 -4 44 -8 82 -10 84 -2 2 1 10 7 18 9 10 8 13 0 13 -7 0 -9 5
-5 11 3 6 8 37 9 68 1 31 3 56 4 56 1 0 4 20 6 45 2 25 6 54 8 65 3 12 8 46
12 78 4 31 12 57 17 57 5 0 6 4 3 10 -3 5 9 70 26 142 18 73 34 135 34 138 1
3 7 25 15 50 7 25 15 51 16 58 1 8 6 21 10 30 4 9 8 22 9 27 0 6 4 17 7 25 4
8 16 44 29 80 21 62 99 263 133 342 9 21 16 41 15 44 0 4 3 10 8 13 4 3 30 51
56 105 42 86 181 327 208 360 5 6 41 54 81 106 104 136 90 127 198 133 137 8
221 38 285 102 23 22 36 74 33 131 -3 54 -6 60 -37 81 -19 13 -52 28 -75 35
-38 10 -192 19 -200 11z"/>
<path d="M3118 5814 c-2 -1 -21 -5 -44 -7 -65 -8 -186 -64 -276 -128 -46 -32
-108 -76 -139 -98 -31 -22 -83 -66 -116 -98 -63 -62 -163 -179 -163 -192 0 -4
-8 -16 -18 -27 -51 -55 -194 -329 -261 -499 -26 -68 -34 -89 -35 -95 -1 -3 -4
-9 -8 -15 -6 -10 -29 -83 -70 -215 -41 -136 -103 -391 -113 -462 -2 -15 -6
-31 -8 -35 -3 -4 -8 -28 -11 -53 -3 -25 -8 -56 -11 -70 -6 -27 -10 -51 -20
-120 -4 -25 -9 -54 -11 -65 -4 -22 -11 -70 -19 -130 -3 -22 -7 -54 -9 -71 -7
-49 -18 -154 -21 -207 -2 -27 -5 -50 -8 -53 -3 -3 2 -26 10 -52 8 -26 16 -57
19 -68 7 -36 64 -165 97 -219 90 -150 257 -273 406 -300 14 -3 37 -7 51 -10
14 -3 63 -6 110 -6 75 -1 115 3 195 16 35 6 179 46 190 53 5 3 15 7 21 8 15 2
141 86 179 119 173 149 324 344 426 550 24 50 48 93 52 96 5 3 8 9 7 13 -1 4
17 55 40 114 60 153 127 408 144 547 2 11 6 38 9 60 15 94 22 169 32 320 5 70
5 789 1 850 -3 28 -7 84 -10 125 -10 141 -31 225 -56 225 -28 0 -129 -249
-165 -405 -38 -168 -47 -214 -60 -345 -6 -53 -6 -264 -1 -328 4 -42 -4 -80
-39 -202 -13 -44 -26 -91 -29 -105 -3 -14 -10 -41 -16 -60 -6 -19 -13 -42 -15
-50 -2 -8 -8 -26 -13 -40 -5 -14 -10 -27 -10 -30 0 -3 -3 -12 -6 -20 -3 -8
-17 -51 -31 -95 -14 -44 -31 -89 -36 -100 -6 -12 -11 -27 -13 -35 -2 -8 -7
-24 -11 -35 -4 -11 -19 -47 -32 -80 -71 -178 -169 -376 -234 -473 -16 -24 -29
-47 -29 -52 0 -4 -3 -10 -7 -12 -5 -1 -26 -25 -47 -53 -72 -91 -100 -112 -185
-139 -68 -22 -150 -39 -186 -39 -5 0 -34 3 -63 7 -81 10 -139 44 -199 120 -16
19 -55 116 -47 116 4 0 2 6 -4 13 -20 25 -30 230 -17 352 3 22 6 56 8 75 2 19
7 51 11 70 3 19 8 46 10 60 3 14 7 35 10 46 2 12 14 66 26 119 11 54 23 101
25 105 2 4 7 21 10 38 3 18 12 51 19 75 8 23 21 68 30 100 9 32 22 70 28 85 6
15 12 34 14 43 2 9 13 37 24 63 11 26 20 51 20 56 0 5 10 30 22 57 12 26 22
51 23 56 2 4 3 8 5 10 1 1 3 11 5 21 4 23 208 433 229 461 9 11 44 64 79 117
35 53 95 136 133 183 l69 85 70 1 c39 0 81 3 95 5 52 10 65 13 65 14 0 1 8 3
18 5 53 10 134 69 152 111 20 46 22 108 7 146 -11 27 -57 58 -87 58 -8 0 -15
4 -15 8 0 4 -8 8 -17 9 -55 5 -153 10 -155 7z"/>
<path d="M1665 5529 c-82 -19 -105 -28 -105 -40 0 -12 -142 -153 -225 -224
-38 -33 -72 -63 -75 -66 -3 -3 -63 -52 -135 -108 -71 -56 -137 -108 -145 -114
-8 -7 -31 -23 -50 -37 -19 -14 -42 -31 -50 -38 -9 -7 -105 -77 -215 -156
l-200 -143 1 -49 c1 -70 7 -94 33 -140 80 -143 335 -44 716 278 21 18 51 45
66 60 34 32 43 26 24 -17 -7 -19 -11 -36 -8 -38 2 -3 -1 -15 -7 -27 -6 -12
-13 -30 -16 -41 -9 -40 -14 -57 -53 -164 -65 -181 -73 -206 -71 -213 0 -1 -6
-16 -15 -32 -8 -16 -27 -62 -41 -102 -14 -40 -32 -87 -40 -105 -8 -17 -14 -33
-14 -36 0 -5 -12 -36 -26 -67 -7 -18 -17 -56 -15 -59 2 -2 -1 -7 -6 -10 -4 -3
-17 -31 -27 -61 -10 -30 -25 -65 -32 -77 -8 -12 -14 -31 -14 -41 0 -10 -4 -22
-8 -28 -12 -12 -57 -137 -54 -146 1 -5 -2 -8 -7 -8 -5 0 -11 -10 -15 -23 -3
-13 -13 -41 -22 -63 -10 -21 -19 -43 -20 -49 -4 -18 -174 -439 -184 -457 -6
-10 -10 -25 -10 -33 0 -8 -3 -15 -8 -15 -4 0 -13 -15 -21 -32 -8 -18 -32 -69
-53 -113 -21 -44 -39 -82 -39 -85 0 -3 -6 -18 -14 -35 -15 -34 -65 -173 -70
-195 -3 -8 -11 -40 -20 -70 -19 -66 -20 -69 -44 -195 -46 -234 -45 -498 3
-690 2 -5 6 -23 10 -40 4 -16 10 -37 13 -45 3 -8 7 -22 9 -31 4 -20 42 -109
47 -109 1 0 4 15 5 33 4 54 17 115 78 367 2 8 10 39 18 68 8 28 12 52 9 52 -3
0 -1 6 5 12 6 7 11 16 11 21 1 4 1 8 2 10 0 1 2 9 4 17 4 21 41 155 60 220 15
52 22 77 30 110 2 8 4 16 5 18 2 1 3 5 4 10 1 4 10 34 20 67 10 33 20 67 21
75 2 8 4 16 5 18 2 1 4 7 5 12 1 6 3 11 5 13 1 1 3 9 5 17 3 16 73 200 99 262
9 21 15 39 14 40 -1 2 5 17 14 33 10 17 42 89 74 160 77 177 77 179 76 188 -1
4 2 7 8 7 5 0 10 5 10 11 0 10 14 42 70 164 49 105 63 140 62 148 -1 4 2 7 8
7 6 0 9 3 8 8 -1 4 14 42 35 85 20 44 37 83 37 88 0 5 5 9 10 9 6 0 10 6 10
13 0 7 8 22 18 33 19 21 152 287 202 404 18 41 36 82 41 90 5 8 12 22 15 30
49 123 98 241 109 265 13 27 115 284 202 510 19 50 40 104 46 120 6 17 11 33
9 38 -1 4 3 7 9 7 5 0 8 4 5 8 -2 4 1 21 8 37 134 305 102 430 -111 439 -32 1
-89 -6 -128 -15z"/>
<path d="M3977 2134 c-1 -1 -72 -5 -157 -8 -85 -3 -166 -8 -180 -10 -14 -3
-56 -7 -95 -11 -38 -3 -77 -8 -85 -10 -8 -2 -40 -6 -71 -10 -31 -3 -65 -7 -75
-9 -27 -5 -116 -19 -139 -22 -23 -3 -76 -12 -120 -20 -16 -3 -40 -6 -52 -7
-13 0 -23 -5 -23 -10 0 -4 -3 -6 -8 -3 -6 4 -36 -1 -122 -19 -50 -10 -135 -28
-145 -29 -8 -2 -117 -27 -135 -31 -3 -1 -21 -5 -40 -9 -19 -4 -64 -14 -99 -23
-36 -8 -72 -16 -80 -18 -9 -2 -70 -17 -136 -33 -66 -17 -140 -33 -165 -37
-141 -18 -171 -23 -243 -41 -34 -8 -71 -17 -81 -19 -10 -2 -35 -10 -55 -17
-20 -7 -38 -13 -41 -13 -18 -3 -87 -29 -96 -36 -16 -13 -44 -107 -46 -159 -10
-183 83 -231 325 -169 45 11 89 22 97 24 8 2 62 15 120 29 58 15 116 28 130
31 14 2 86 18 160 34 74 16 146 32 160 35 14 2 50 10 80 16 30 6 66 13 80 15
14 3 36 7 50 10 14 3 37 7 52 10 15 3 57 11 92 19 36 7 68 11 71 8 3 -3 5 0 5
7 0 7 5 9 10 6 6 -3 45 1 88 9 42 8 93 18 112 21 19 3 46 8 60 10 26 5 58 10
125 20 22 3 50 8 62 10 22 5 83 14 138 21 17 2 41 5 55 8 23 4 51 7 160 21 25
3 61 8 81 10 20 3 59 8 85 11 27 2 67 7 89 10 22 2 65 7 95 9 30 3 73 7 95 10
36 4 112 10 245 21 54 4 296 15 397 18 40 1 75 4 78 7 3 3 0 17 -7 30 -81 156
-330 255 -688 275 -132 7 -211 10 -213 8z"/>
<path d="M4147 1104 c-1 -1 -81 -5 -177 -9 -96 -3 -197 -8 -225 -10 -27 -2
-79 -6 -115 -9 -133 -10 -216 -17 -250 -21 -19 -2 -60 -7 -90 -11 -30 -3 -58
-8 -62 -11 -5 -2 -8 1 -8 7 0 6 -5 8 -12 3 -15 -9 -16 -9 -100 -18 -35 -4 -79
-9 -98 -11 -19 -3 -55 -6 -80 -9 -25 -2 -45 -4 -45 -5 0 -1 -18 -4 -40 -6 -81
-10 -100 -12 -100 -14 0 -1 -18 -3 -40 -5 -38 -3 -84 -9 -131 -19 -12 -2 -37
-7 -55 -10 -33 -5 -158 -30 -209 -41 -14 -3 -37 -7 -53 -10 -15 -3 -60 -12
-100 -21 -39 -8 -83 -18 -97 -20 -21 -4 -51 -10 -95 -20 -9 -2 -59 -12 -185
-38 -14 -3 -54 -13 -90 -21 -36 -8 -76 -18 -90 -21 -14 -3 -43 -10 -64 -15
-22 -6 -51 -12 -65 -14 -14 -2 -26 -4 -26 -5 0 -2 -34 -10 -55 -14 -8 -1 -25
-6 -37 -10 -12 -4 -30 -8 -40 -10 -10 -2 -47 -12 -83 -21 -36 -9 -74 -19 -85
-21 -19 -4 -72 -19 -220 -64 -38 -12 -79 -24 -90 -26 -26 -7 -37 -10 -55 -16
-8 -3 -44 -16 -80 -29 -159 -55 -221 -99 -241 -174 -17 -63 22 -157 92 -221
23 -21 27 -21 77 -8 29 7 62 16 75 18 12 3 61 16 110 29 48 14 87 23 87 21 0
-3 8 0 18 5 9 5 31 11 47 15 17 3 59 12 95 21 35 9 74 18 85 20 11 2 21 4 23
6 2 2 2 2 57 14 22 4 45 9 50 11 35 8 102 25 115 29 28 7 165 37 185 39 11 2
38 8 60 14 37 10 51 13 123 27 15 3 35 8 44 11 16 5 35 9 88 19 14 3 34 7 45
9 59 14 223 48 245 52 14 3 115 22 225 44 110 21 216 41 235 44 19 3 46 8 60
11 13 2 42 7 65 10 22 3 47 8 55 10 8 2 29 6 45 9 17 2 50 8 75 12 25 4 54 8
65 10 11 1 36 5 55 9 19 3 51 8 70 11 19 2 53 7 75 11 22 3 52 7 68 7 15 1 27
3 27 6 0 3 15 6 33 7 17 0 50 3 72 6 39 6 74 10 180 22 28 3 66 8 85 10 19 2
69 7 110 11 41 3 89 8 105 9 77 8 310 17 510 21 206 3 292 7 340 18 12 2 50 7
86 10 36 4 79 9 95 12 16 3 48 7 70 8 23 2 46 6 53 10 6 4 11 5 11 3 0 -4 82
14 125 27 6 2 23 6 38 11 24 6 28 11 22 32 -3 14 -18 35 -33 48 -25 23 -115
72 -137 76 -5 0 -26 7 -45 15 -19 8 -46 16 -60 18 -14 3 -25 5 -25 6 0 1 -11
3 -25 6 -14 2 -47 9 -75 14 -98 19 -166 26 -345 35 -115 6 -339 12 -343 9z"/>
</g>
</svg>
